# xmcd
#
# Track frame offsets:
#       150
#       14344
#       34222
#       50440
#       66634
#       86700
#       103331
#       121984
#       143258
#       159517
#       178587
#       199859
#       217519
#       237350
#       253940
#       273919
#       289339
#
# Disc length: 4091 seconds
#
# Revision: 1
# Processed by: cddbd v1.5.1PL0 Copyright (c) Steve Scherf et al.
# Submitted via: MusiCat 1.1
#
DISCID=fa0ff911
DTITLE=Shania Twain - Shania Twain
DYEAR=1900
DGENRE=
TTITLE0=No one need´s to know
TTITLE1=That don´t impress me much
TTITLE2=Don´t be stupid (you know i love you)
TTITLE3=Love get´s me every time
TTITLE4=You win my love
TTITLE5=Black eyes, blue tears
TTITLE6=Any man of mine
TTITLE7=From this momento on
TTITLE8=Honey i´m home
TTITLE9=I won´t leave you lonely
TTITLE10=If you´re not in it for love (i´m out a)
TTITLE11=Man! I fell like a woman!
TTITLE12=Rock this country!
TTITLE13=when
TTITLE14=Whose bed have your boots been under
TTITLE15=You´ve got a way (nothing hill remix)
TTITLE16=God bless the child
EXTD=\n\n
EXTT0=
EXTT1=
EXTT2=
EXTT3=
EXTT4=
EXTT5=
EXTT6=
EXTT7=
EXTT8=
EXTT9=
EXTT10=
EXTT11=
EXTT12=
EXTT13=
EXTT14=
EXTT15=
EXTT16=
PLAYORDER=
